<?xml version="1.0" encoding="UTF-8" standalone="no"?>
<svg
   xmlns:dc="http://purl.org/dc/elements/1.1/"
   xmlns:cc="http://creativecommons.org/ns#"
   xmlns:rdf="http://www.w3.org/1999/02/22-rdf-syntax-ns#"
   xmlns:svg="http://www.w3.org/2000/svg"
   xmlns="http://www.w3.org/2000/svg"
   xmlns:sodipodi="http://sodipodi.sourceforge.net/DTD/sodipodi-0.dtd"
   xmlns:inkscape="http://www.inkscape.org/namespaces/inkscape"
   id="svg8514"
   viewBox="0 0 800 800"
   height="800"
   width="800"
   y="0"
   x="0"
   version="1.1"
   sodipodi:docname="325645re325653re.svg"
   inkscape:version="0.92.4 (5da689c313, 2019-01-14)">
  <sodipodi:namedview
     pagecolor="#ffffff"
     bordercolor="#666666"
     borderopacity="1"
     objecttolerance="10"
     gridtolerance="10"
     guidetolerance="10"
     inkscape:pageopacity="0"
     inkscape:pageshadow="2"
     inkscape:window-width="1920"
     inkscape:window-height="1001"
     id="namedview141"
     showgrid="false"
     inkscape:zoom="0.834386"
     inkscape:cx="740.09723"
     inkscape:cy="258.57102"
     inkscape:window-x="-9"
     inkscape:window-y="-9"
     inkscape:window-maximized="1"
     inkscape:current-layer="g15688" />
  <metadata
     id="metadata8575">
    <rdf:RDF>
      <cc:Work
         rdf:about="">
        <dc:format>image/svg+xml</dc:format>
        <dc:type
           rdf:resource="http://purl.org/dc/dcmitype/StillImage" />
        <dc:title />
        <dc:description>remix by j4p4n</dc:description>
        <cc:license
           rdf:resource="http://creativecommons.org/publicdomain/zero/1.0/" />
      </cc:Work>
      <cc:License
         rdf:about="http://creativecommons.org/publicdomain/zero/1.0/">
        <cc:permits
           rdf:resource="http://creativecommons.org/ns#Reproduction" />
        <cc:permits
           rdf:resource="http://creativecommons.org/ns#Distribution" />
        <cc:permits
           rdf:resource="http://creativecommons.org/ns#DerivativeWorks" />
      </cc:License>
    </rdf:RDF>
  </metadata>
  <defs
     id="defs8573">
    <marker
       orient="auto-start-reverse"
       refY="3"
       refX="5"
       id="marker15291">
      <path
         id="path15289"
         d="M 10,3 0,6 V 0 Z"
         style="fill:#e16049;fill-opacity:1;stroke:#e16049;stroke-opacity:1" />
    </marker>
    <marker
       id="marker15021"
       refX="5"
       refY="3"
       orient="auto-start-reverse">
      <path
         style="fill:#e16049;fill-opacity:1;stroke:#e16049;stroke-opacity:1"
         d="M 10,3 0,6 V 0 Z"
         id="path15019" />
    </marker>
    <marker
       id="marker14685"
       refX="5"
       refY="3"
       orient="auto-start-reverse">
      <path
         style="fill:#e16049;fill-opacity:1;stroke:#e16049;stroke-opacity:1"
         d="M 10,3 0,6 V 0 Z"
         id="path14683" />
    </marker>
    <marker
       orient="auto-start-reverse"
       refY="3"
       refX="5"
       id="marker14337">
      <path
         id="path14335"
         d="M 10,3 0,6 V 0 Z"
         style="fill:#e16049;fill-opacity:1;stroke:#e16049;stroke-opacity:1" />
    </marker>
    <marker
       id="marker13727"
       refX="5"
       refY="3"
       orient="auto-start-reverse">
      <path
         style="fill:#e16049;fill-opacity:1;stroke:#e16049;stroke-opacity:1"
         d="M 10,3 0,6 V 0 Z"
         id="path13725" />
    </marker>
    <marker
       id="marker12127"
       refX="5"
       refY="3"
       orient="auto-start-reverse">
      <path
         style="fill:#e16049;fill-opacity:1;stroke:#e16049;stroke-opacity:1"
         d="M 10,3 0,6 V 0 Z"
         id="path12125" />
    </marker>
    <marker
       id="marker11571"
       refX="5"
       refY="3"
       orient="auto-start-reverse">
      <path
         style="fill:#e16049;fill-opacity:1;stroke:#e16049;stroke-opacity:1"
         d="M 10,3 0,6 V 0 Z"
         id="path11569" />
    </marker>
    <marker
       id="marker10569"
       refX="5"
       refY="3"
       orient="auto-start-reverse">
      <path
         style="fill:#e16049;fill-opacity:1;stroke:#e16049;stroke-opacity:1"
         d="M 10,3 0,6 V 0 Z"
         id="path10567" />
    </marker>
    <marker
       orient="auto-start-reverse"
       refY="3"
       refX="5"
       id="marker9013">
      <path
         id="path9011"
         d="M 10,3 0,6 V 0 Z"
         style="fill:#e16049;fill-opacity:1;stroke:#e16049;stroke-opacity:1" />
    </marker>
    <marker
       id="marker8891"
       refX="5"
       refY="3"
       orient="auto-start-reverse">
      <path
         style="fill:#e16049;fill-opacity:1;stroke:#e16049;stroke-opacity:1"
         d="M 10,3 0,6 V 0 Z"
         id="path8889" />
    </marker>
    <marker
       id="marker8686"
       refX="5"
       refY="3"
       orient="auto-start-reverse">
      <path
         style="fill:#e16049;fill-opacity:1;stroke:#e16049;stroke-opacity:1"
         d="M 10,3 0,6 V 0 Z"
         id="path8684" />
    </marker>
    <marker
       orient="auto-start-reverse"
       refY="3"
       refX="5"
       id="marker8448">
      <path
         id="path8446"
         d="M 10,3 0,6 V 0 Z"
         style="fill:#e16049;fill-opacity:1;stroke:#e16049;stroke-opacity:1" />
    </marker>
    <marker
       id="marker7626"
       refX="5"
       refY="3"
       orient="auto-start-reverse">
      <path
         style="fill:#e16049;fill-opacity:1;stroke:#e16049;stroke-opacity:1"
         d="M 10,3 0,6 V 0 Z"
         id="path7624" />
    </marker>
    <marker
       orient="auto-start-reverse"
       refY="3"
       refX="5"
       id="marker7542">
      <path
         id="path7540"
         d="M 10,3 0,6 V 0 Z"
         style="fill:#e16049;fill-opacity:1;stroke:#e16049;stroke-opacity:1" />
    </marker>
    <marker
       id="marker7176"
       refX="5"
       refY="3"
       orient="auto-start-reverse">
      <path
         style="fill:#e16049;fill-opacity:1;stroke:#e16049;stroke-opacity:1"
         d="M 10,3 0,6 V 0 Z"
         id="path7174" />
    </marker>
    <marker
       id="marker7118"
       refX="5"
       refY="3"
       orient="auto-start-reverse">
      <path
         style="fill:#e16049;fill-opacity:1;stroke:#e16049;stroke-opacity:1"
         d="M 10,3 0,6 V 0 Z"
         id="path7116" />
    </marker>
    <marker
       id="marker5955"
       refX="5"
       refY="3"
       orient="auto-start-reverse">
      <path
         style="fill:#e16049;fill-opacity:1;stroke:#e16049;stroke-opacity:1"
         d="M 10,3 0,6 V 0 Z"
         id="path5953" />
    </marker>
    <marker
       id="marker5874"
       refX="5"
       refY="3"
       orient="auto-start-reverse">
      <path
         style="fill:#e16049;fill-opacity:1;stroke:#e16049;stroke-opacity:1"
         d="M 10,3 0,6 V 0 Z"
         id="path5872" />
    </marker>
    <marker
       id="marker5692"
       refX="5"
       refY="3"
       orient="auto-start-reverse">
      <path
         style="fill:#e16049;fill-opacity:1;stroke:#e16049;stroke-opacity:1"
         d="M 10,3 0,6 V 0 Z"
         id="path5690" />
    </marker>
    <marker
       orient="auto-start-reverse"
       refY="3"
       refX="5"
       id="marker4900">
      <path
         id="path4898"
         d="M 10,3 0,6 V 0 Z"
         style="fill:#e16049;fill-opacity:1;stroke:#e16049;stroke-opacity:1" />
    </marker>
    <marker
       style="overflow:visible"
       id="marker4532"
       refX="0"
       refY="0"
       orient="auto">
      <path
         transform="matrix(-1.1,0,0,-1.1,-1.1,0)"
         d="M 8.7185878,4.0337352 -2.2072895,0.01601326 8.7185884,-4.0017078 c -1.7454984,2.3720609 -1.7354408,5.6174519 -6e-7,8.035443 z"
         style="fill:#000000;fill-opacity:0;fill-rule:evenodd;stroke:#e16049;stroke-width:0.625;stroke-linejoin:round;stroke-opacity:1"
         id="path4530" />
    </marker>
    <marker
       style="overflow:visible"
       id="Arrow2Lend"
       refX="0"
       refY="0"
       orient="auto">
      <path
         transform="matrix(-1.1,0,0,-1.1,-1.1,0)"
         d="M 8.7185878,4.0337352 -2.2072895,0.01601326 8.7185884,-4.0017078 c -1.7454984,2.3720609 -1.7354408,5.6174519 -6e-7,8.035443 z"
         style="fill:#000000;fill-opacity:0;fill-rule:evenodd;stroke:#e16049;stroke-width:0.625;stroke-linejoin:round;stroke-opacity:1"
         id="path4269" />
    </marker>
    <marker
       orient="auto-start-reverse"
       refY="3"
       refX="5"
       id="marker7542-9">
      <path
         id="path7540-4"
         d="M 10,3 0,6 V 0 Z"
         style="fill:#e16049;fill-opacity:1;stroke:#e16049;stroke-opacity:1" />
    </marker>
  </defs>
  <g
     transform="matrix(0.26323703,0,0,0.26323703,-87.35213,-643.04092)"
     id="g15688">
    <g
       id="g4079"
       transform="matrix(0.7225,0,0,0.7225,959.03898,2768.3271)">
      <g
         transform="translate(-1448.2007,2560.01)"
         id="g4005">
        <g
           id="g3997">
          <path
             id="path4014"
             d="m 1841.498,702.65 h -181.655 l 5.86,-68.364 c 0,0 -84.845,-50.396 -74.81,-118.524 13.204,-89.671 24.646,-177.483 24.646,-177.483 0,0 -43.4429,-199.68311 -40.6389,-252.923107 0.04,-59.306466 66.424,-51.962785 73.6651,-16.234126 17.6343,87.010583 52.4698,239.597233 52.4698,239.597233 0,0 -37.564,-233.846 -37.564,-265.642 0,-31.251 58.7474,-64.896125 70.316,5.859 11.5686,70.75512 45.379,263.688 45.379,263.688 0,0 33.797,-198.725 42.246,-222.669 11.721,-33.206 57.605,-29.418 56.646,13.672 -1.951,87.748 -30.527,226.578 -30.527,226.578 0,0 27.4316,-112.18059 35.7445,-155.8695 8.3129,-43.68891 59.0309,-23.22937 56.2515,3.51875 -2.7794,26.74812 -20.539,123.48775 -27.031,175.78875 -8.172,65.807 8.573,118.913 0.685,154.307 -16.187,72.598 -69.734,132.194 -69.734,132.194 z"
             style="fill:#f7cfbe;fill-opacity:1;stroke:none;stroke-width:18.69300079;stroke-linecap:round;stroke-linejoin:round" />
          <path
             style="fill-opacity:0;stroke:#e16049;stroke-width:18.69300079;stroke-linecap:round;stroke-linejoin:round"
             d="m 1841.498,702.65 h -181.655 l 5.86,-68.364 c 0,0 -84.845,-50.396 -74.81,-118.524 13.204,-89.671 24.646,-177.483 24.646,-177.483 0,0 -43.4429,-199.68311 -40.6389,-252.923107 0.04,-59.306466 66.424,-51.962785 73.6651,-16.234126 17.6343,87.010583 52.4698,239.597233 52.4698,239.597233 0,0 -37.564,-233.846 -37.564,-265.642 0,-31.251 58.7474,-64.896125 70.316,5.859 11.5686,70.75512 45.379,263.688 45.379,263.688 0,0 33.797,-198.725 42.246,-222.669 11.721,-33.206 57.605,-29.418 56.646,13.672 -1.951,87.748 -30.527,226.578 -30.527,226.578 0,0 27.4316,-112.18059 35.7445,-155.8695 8.3129,-43.68891 59.0309,-23.22937 56.2515,3.51875 -2.7794,26.74812 -20.539,123.48775 -27.031,175.78875 -8.172,65.807 8.573,118.913 0.685,154.307 -16.187,72.598 -69.734,132.194 -69.734,132.194 z"
             id="path3995" />
        </g>
        <g
           id="g4003">
          <path
             style="fill:#f7cfbe"
             d="m 1598.704,566.546 c 0,0 -37.108,-80.079 -48.828,-101.567 -11.721,-21.488 -41.369,-95.561 -48.835,-113.29 -15.626,-37.111 37.114,-54.69 60.555,-31.251 23.437,23.438 58.595,89.85 58.595,89.85 0,0 40.307,15.389 52.736,19.533 23.442,7.812 39.067,41.017 39.067,41.017"
             id="path3999" />
          <path
             style="fill-opacity:0;stroke:#e16049;stroke-width:18.69300079;stroke-linecap:round;stroke-linejoin:round"
             d="m 1598.704,566.546 c 0,0 -37.108,-80.079 -48.828,-101.567 -11.721,-21.488 -41.369,-95.561 -48.835,-113.29 -15.626,-37.111 37.114,-54.69 60.555,-31.251 23.437,23.438 58.595,89.85 58.595,89.85 0,0 40.307,15.389 52.736,19.533 23.442,7.812 39.067,41.017 39.067,41.017"
             id="path4001" />
        </g>
      </g>
      <rect
         ry="56.238438"
         y="3305.9773"
         x="-14.697108"
         height="146.21994"
         width="642.38324"
         id="rect4007"
         style="opacity:1;fill:#f7e6be;fill-opacity:1;fill-rule:evenodd;stroke:#e16049;stroke-width:20.60581017;stroke-linecap:round;stroke-linejoin:bevel;stroke-miterlimit:4;stroke-dasharray:none;stroke-opacity:0.95588235" />
      <g
         aria-label="SPOCK"
         transform="matrix(4.9976357,0,0,4.9976357,-2541.5332,-11995.851)"
         style="font-style:normal;font-variant:normal;font-weight:bold;font-stretch:normal;font-size:21.33333397px;line-height:12.3999998%;font-family:sans-serif;-inkscape-font-specification:'sans-serif Bold';font-variant-ligatures:normal;font-variant-caps:normal;font-variant-numeric:normal;font-feature-settings:normal;text-align:start;letter-spacing:0px;word-spacing:0px;writing-mode:lr-tb;text-anchor:start;fill:#e3664e;fill-opacity:1;stroke:none;stroke-width:1px;stroke-linecap:butt;stroke-linejoin:miter;stroke-opacity:1"
         id="flowRoot4021">
        <path
           d="m 540.90625,3069.1456 v 3.2916 q -1.28125,-0.5729 -2.5,-0.8645 -1.21875,-0.2917 -2.30208,-0.2917 -1.4375,0 -2.125,0.3958 -0.6875,0.3959 -0.6875,1.2292 0,0.625 0.45833,0.9792 0.46875,0.3437 1.6875,0.5937 l 1.70833,0.3438 q 2.59375,0.5208 3.6875,1.5833 1.09375,1.0625 1.09375,3.0208 0,2.573 -1.53125,3.8334 -1.52083,1.25 -4.65625,1.25 -1.47916,0 -2.96875,-0.2813 -1.48958,-0.2812 -2.97916,-0.8333 v -3.3854 q 1.48958,0.7916 2.875,1.1979 1.39583,0.3958 2.6875,0.3958 1.3125,0 2.01041,-0.4375 0.69792,-0.4375 0.69792,-1.25 0,-0.7291 -0.47917,-1.125 -0.46875,-0.3958 -1.88541,-0.7083 l -1.55209,-0.3438 q -2.33333,-0.5 -3.41666,-1.5937 -1.07292,-1.0938 -1.07292,-2.9479 0,-2.323 1.5,-3.573 1.5,-1.25 4.3125,-1.25 1.28125,0 2.63542,0.198 1.35416,0.1875 2.80208,0.5729 z"
           id="path4140" />
        <path
           d="m 545.45833,3068.656 h 6.65625 q 2.96875,0 4.55209,1.3229 1.59375,1.3125 1.59375,3.75 0,2.4479 -1.59375,3.7708 -1.58334,1.3126 -4.55209,1.3126 h -2.64583 v 5.3958 h -4.01042 z m 4.01042,2.9062 v 4.3438 h 2.21875 q 1.16667,0 1.80208,-0.5625 0.63542,-0.5729 0.63542,-1.6146 0,-1.0417 -0.63542,-1.6042 -0.63541,-0.5625 -1.80208,-0.5625 z"
           id="path4142" />
        <path
           d="m 568.1875,3071.281 q -1.83333,0 -2.84375,1.3542 -1.01042,1.3541 -1.01042,3.8125 0,2.4479 1.01042,3.8021 1.01042,1.3541 2.84375,1.3541 1.84375,0 2.85417,-1.3541 1.01041,-1.3542 1.01041,-3.8021 0,-2.4584 -1.01041,-3.8125 -1.01042,-1.3542 -2.85417,-1.3542 z m 0,-2.9063 q 3.75,0 5.875,2.1459 2.125,2.1458 2.125,5.9271 0,3.7708 -2.125,5.9166 -2.125,2.1459 -5.875,2.1459 -3.73958,0 -5.875,-2.1459 -2.125,-2.1458 -2.125,-5.9166 0,-3.7813 2.125,-5.9271 2.13542,-2.1459 5.875,-2.1459 z"
           id="path4144" />
        <path
           d="m 591.54167,3083.3539 q -1.10417,0.5729 -2.30209,0.8646 -1.19791,0.2917 -2.5,0.2917 -3.88541,0 -6.15625,-2.1667 -2.27083,-2.1771 -2.27083,-5.8958 0,-3.7292 2.27083,-5.8959 2.27084,-2.1771 6.15625,-2.1771 1.30209,0 2.5,0.2917 1.19792,0.2917 2.30209,0.8646 v 3.2187 q -1.11459,-0.7604 -2.19792,-1.1145 -1.08333,-0.3542 -2.28125,-0.3542 -2.14583,0 -3.375,1.375 -1.22917,1.375 -1.22917,3.7917 0,2.4062 1.22917,3.7812 1.22917,1.375 3.375,1.375 1.19792,0 2.28125,-0.3541 1.08333,-0.3542 2.19792,-1.1146 z"
           id="path4146" />
        <path
           d="m 594.875,3068.656 h 4.01041 v 5.6771 l 5.78125,-5.6771 h 4.65625 l -7.48958,7.3646 8.26042,8.1875 h -5.02084 l -6.1875,-6.125 v 6.125 H 594.875 Z"
           id="path4148" />
      </g>
    </g>
    <g
       id="g4165"
       transform="matrix(0.7225,0,0,0.7225,2105.9095,2624.4705)">
      <g
         id="g9135"
         transform="translate(-598.2007,978.76004)">
        <g
           id="g8559">
          <path
             id="path8561"
             d="m 1841.498,702.65 h -181.655 l 5.86,-68.364 c 0,0 -84.845,-50.396 -74.81,-118.524 13.204,-89.671 24.646,-177.483 24.646,-177.483 0,0 9.662,-185.32 12.466,-238.56 3.907,-74.222 70.473,-74.034 70.473,-9.605 0,89.849 0.79,112.809 -0.584,130.709 -1.956,25.391 3.141,87.896 3.141,87.896 0,0 14.436,-233.846 14.436,-265.642 0,-31.251 66.408,-58.598 70.316,5.859 5.948,98.147 -6.621,263.688 -6.621,263.688 0,0 13.797,-198.725 22.246,-222.669 11.721,-33.206 57.605,-29.418 56.646,13.672 -1.951,87.748 -10.527,226.578 -10.527,226.578 0,0 8.554,-85.237 14.182,-138.682 3.904,-37.111 52.734,-62.504 54.689,13.675 1.08,42.161 2.586,96.144 -3.906,148.445 -8.172,65.807 8.573,118.913 0.685,154.307 -16.187,72.598 -69.734,132.194 -69.734,132.194 z"
             style="fill:#f7cfbe" />
          <path
             id="path8563"
             d="m 1841.498,702.65 h -181.655 l 5.86,-68.364 c 0,0 -84.845,-50.396 -74.81,-118.524 13.204,-89.671 24.646,-177.483 24.646,-177.483 0,0 9.662,-185.32 12.466,-238.56 3.907,-74.222 70.473,-74.034 70.473,-9.605 0,89.849 0.79,112.809 -0.584,130.709 -1.956,25.391 3.141,87.896 3.141,87.896 0,0 14.436,-233.846 14.436,-265.642 0,-31.251 66.408,-58.598 70.316,5.859 5.948,98.147 -6.621,263.688 -6.621,263.688 0,0 13.797,-198.725 22.246,-222.669 11.721,-33.206 57.605,-29.418 56.646,13.672 -1.951,87.748 -10.527,226.578 -10.527,226.578 0,0 8.554,-85.237 14.182,-138.682 3.904,-37.111 52.734,-62.504 54.689,13.675 1.08,42.161 2.586,96.144 -3.906,148.445 -8.172,65.807 8.573,118.913 0.685,154.307 -16.187,72.598 -69.734,132.194 -69.734,132.194 z"
             style="fill-opacity:0;stroke:#e16049;stroke-width:18.69300079;stroke-linecap:round;stroke-linejoin:round" />
        </g>
        <g
           id="g8565">
          <path
             id="path8567"
             d="m 1598.704,566.546 c 0,0 -37.108,-80.079 -48.828,-101.567 -11.721,-21.488 -41.369,-95.561 -48.835,-113.29 -15.626,-37.111 37.114,-54.69 60.555,-31.251 23.437,23.438 58.595,89.85 58.595,89.85 0,0 40.307,15.389 52.736,19.533 23.442,7.812 39.067,41.017 39.067,41.017"
             style="fill:#f7cfbe" />
          <path
             id="path8569"
             d="m 1598.704,566.546 c 0,0 -37.108,-80.079 -48.828,-101.567 -11.721,-21.488 -41.369,-95.561 -48.835,-113.29 -15.626,-37.111 37.114,-54.69 60.555,-31.251 23.437,23.438 58.595,89.85 58.595,89.85 0,0 40.307,15.389 52.736,19.533 23.442,7.812 39.067,41.017 39.067,41.017"
             style="fill-opacity:0;stroke:#e16049;stroke-width:18.69342613;stroke-linecap:round;stroke-linejoin:round;stroke-miterlimit:4;stroke-dasharray:none" />
        </g>
      </g>
      <rect
         style="opacity:1;fill:#f7e6be;fill-opacity:1;fill-rule:evenodd;stroke:#e16049;stroke-width:20.60581017;stroke-linecap:round;stroke-linejoin:bevel;stroke-miterlimit:4;stroke-dasharray:none;stroke-opacity:0.95588235"
         id="rect9149"
         width="642.38324"
         height="146.21994"
         x="835.30286"
         y="1724.7272"
         ry="56.238438" />
      <g
         aria-label="PAPER"
         transform="matrix(4.9976357,0,0,4.9976357,-1678.6226,-13577.049)"
         style="font-style:normal;font-variant:normal;font-weight:bold;font-stretch:normal;font-size:21.33333397px;line-height:12.3999998%;font-family:sans-serif;-inkscape-font-specification:'sans-serif Bold';font-variant-ligatures:normal;font-variant-caps:normal;font-variant-numeric:normal;font-feature-settings:normal;text-align:start;letter-spacing:0px;word-spacing:0px;writing-mode:lr-tb;text-anchor:start;fill:#e3664e;fill-opacity:1;stroke:none;stroke-width:1px;stroke-linecap:butt;stroke-linejoin:miter;stroke-opacity:1"
         id="flowRoot4120">
        <path
           d="m 530.08333,3068.656 h 6.65625 q 2.96875,0 4.55209,1.3229 1.59375,1.3125 1.59375,3.75 0,2.4479 -1.59375,3.7708 -1.58334,1.3126 -4.55209,1.3126 h -2.64583 v 5.3958 h -4.01042 z m 4.01042,2.9062 v 4.3438 h 2.21875 q 1.16667,0 1.80208,-0.5625 0.63542,-0.5729 0.63542,-1.6146 0,-1.0417 -0.63542,-1.6042 -0.63541,-0.5625 -1.80208,-0.5625 z"
           id="path4177" />
        <path
           d="m 553.1875,3081.3748 h -6.27083 l -0.98959,2.8333 h -4.03125 l 5.76042,-15.5521 h 4.78125 l 5.76042,15.5521 h -4.03125 z m -5.27083,-2.8855 h 4.26041 l -2.125,-6.1875 z"
           id="path4179" />
        <path
           d="m 560.25,3068.656 h 6.65625 q 2.96875,0 4.55208,1.3229 1.59376,1.3125 1.59376,3.75 0,2.4479 -1.59376,3.7708 -1.58333,1.3126 -4.55208,1.3126 h -2.64583 v 5.3958 H 560.25 Z m 4.01042,2.9062 v 4.3438 h 2.21875 q 1.16666,0 1.80208,-0.5625 0.63542,-0.5729 0.63542,-1.6146 0,-1.0417 -0.63542,-1.6042 -0.63542,-0.5625 -1.80208,-0.5625 z"
           id="path4181" />
        <path
           d="m 575.875,3068.656 h 10.82292 v 3.0312 h -6.8125 v 2.8959 h 6.40625 v 3.0312 h -6.40625 v 3.5625 h 7.04166 v 3.0313 H 575.875 Z"
           id="path4183" />
        <path
           d="m 596.15625,3075.5518 q 1.26042,0 1.80208,-0.4687 0.55209,-0.4688 0.55209,-1.5417 0,-1.0625 -0.55209,-1.5208 -0.54166,-0.4584 -1.80208,-0.4584 h -1.6875 v 3.9896 z m -1.6875,2.7709 v 5.8854 h -4.01042 v -15.5521 h 6.125 q 3.07292,0 4.5,1.0312 1.4375,1.0313 1.4375,3.2605 0,1.5416 -0.75,2.5312 -0.73958,0.9896 -2.23958,1.4583 0.82292,0.1875 1.46875,0.8542 0.65625,0.6563 1.32292,2 l 2.17708,4.4167 h -4.27083 l -1.89584,-3.8646 q -0.57291,-1.1667 -1.16666,-1.5937 -0.58334,-0.4271 -1.5625,-0.4271 z"
           id="path4185" />
      </g>
    </g>
    <g
       id="g4180"
       transform="matrix(0.7225,0,0,0.7225,1542.4019,2420.6452)">
      <g
         id="g9117"
         transform="rotate(90,778.80539,133.4122)">
        <g
           id="g8545">
          <path
             id="path8547"
             d="m 1246.9,702.65 h -181.654 l 5.861,-68.364 c 0,0 -101.02,-80.62 -91.716,-148.849 4.236,-31.069 26.06,-46.027 29.564,-51.281 5.647,-8.473 1.513,-51.455 8.565,-95.279 8.728,-54.233 41.305,-64.866 72.023,-56.49 31.068,8.475 26.489,34.242 26.489,34.242 0,0 19.533,-29.3 50.783,-23.438 26.947,5.05 29.298,35.158 29.298,35.158 0,0 20.916,-23.887 44.929,-15.627 36.762,12.649 27.344,52.737 27.344,52.737 0,0 48.789,-40.439 66.366,10.344 17.583,50.785 -7.822,83.323 -12.338,122.614 -12.212,106.193 -73.56,141.727 -73.56,141.727 z"
             style="fill:#f7cfbe" />
          <path
             id="path8549"
             d="m 1246.9,702.65 h -181.654 l 5.861,-68.364 c 0,0 -101.02,-80.62 -91.716,-148.849 4.236,-31.069 26.06,-46.027 29.564,-51.281 5.647,-8.473 1.513,-51.455 8.565,-95.279 8.728,-54.233 41.305,-64.866 72.023,-56.49 31.068,8.475 26.489,34.242 26.489,34.242 0,0 19.533,-29.3 50.783,-23.438 26.947,5.05 29.298,35.158 29.298,35.158 0,0 20.916,-23.887 44.929,-15.627 36.762,12.649 27.344,52.737 27.344,52.737 0,0 48.789,-40.439 66.366,10.344 17.583,50.785 -7.822,83.323 -12.338,122.614 -12.212,106.193 -73.56,141.727 -73.56,141.727 z"
             style="fill-opacity:0;stroke:#e16049;stroke-width:18.69300079;stroke-linecap:round;stroke-linejoin:round" />
        </g>
        <path
           id="path8551"
           d="m 1114.255,323.785 c 0,0 -45.315,123.26 -2.149,131.21 48.619,8.951 65.574,-15.746 67.048,-34.927 1.947,-25.284 18.827,-94.845 18.827,-94.845 0,0 -45.511,144.12 2.167,150.622 49.608,6.766 47.334,-35.272 54.181,-54.179 6.849,-18.908 16.848,-68.906 16.848,-68.906 0,0 -21.347,81.933 -26.126,100.566 -10.227,39.857 64.512,83.341 77.193,-22.991 l 8.67,-3.252"
           style="fill-opacity:0;stroke:#e16049;stroke-width:18.69300079;stroke-linecap:round;stroke-linejoin:round" />
        <g
           id="g8553">
          <path
             id="path8555"
             d="m 1079.565,529.443 c 0,0 15.14,-30.508 38.235,-33.133 113.076,-12.865 85.034,-106.834 6.111,-94.824 -117.248,17.843 -137.459,69.829 -137.459,69.829"
             style="fill:#f7cfbe" />
          <path
             id="path8557"
             d="m 1079.565,529.443 c 0,0 15.14,-30.508 38.235,-33.133 113.076,-12.865 85.034,-106.834 6.111,-94.824 -117.248,17.843 -137.459,69.829 -137.459,69.829"
             style="fill-opacity:0;stroke:#e16049;stroke-width:18.69300079;stroke-linecap:round;stroke-linejoin:round" />
        </g>
      </g>
      <rect
         style="opacity:1;fill:#f7e6be;fill-opacity:1;fill-rule:evenodd;stroke:#e16049;stroke-width:20.60581017;stroke-linecap:round;stroke-linejoin:bevel;stroke-miterlimit:4;stroke-dasharray:none;stroke-opacity:0.95588235"
         id="rect9161"
         width="642.38324"
         height="146.21994"
         x="104.05289"
         y="824.72717"
         ry="56.238438" />
      <g
         aria-label="ROCK"
         transform="matrix(4.9976357,0,0,4.9976357,-2387.4093,-14477.101)"
         style="font-style:normal;font-variant:normal;font-weight:bold;font-stretch:normal;font-size:21.33333397px;line-height:12.3999998%;font-family:sans-serif;-inkscape-font-specification:'sans-serif Bold';font-variant-ligatures:normal;font-variant-caps:normal;font-variant-numeric:normal;font-feature-settings:normal;text-align:start;letter-spacing:0px;word-spacing:0px;writing-mode:lr-tb;text-anchor:start;fill:#e3664e;fill-opacity:1;stroke:none;stroke-width:1px;stroke-linecap:butt;stroke-linejoin:miter;stroke-opacity:1"
         id="flowRoot4128">
        <path
           d="m 535.78125,3075.5518 q 1.26042,0 1.80208,-0.4687 0.55209,-0.4688 0.55209,-1.5417 0,-1.0625 -0.55209,-1.5208 -0.54166,-0.4584 -1.80208,-0.4584 h -1.6875 v 3.9896 z m -1.6875,2.7709 v 5.8854 h -4.01042 v -15.5521 h 6.125 q 3.07292,0 4.5,1.0312 1.4375,1.0313 1.4375,3.2605 0,1.5416 -0.75,2.5312 -0.73958,0.9896 -2.23958,1.4583 0.82292,0.1875 1.46875,0.8542 0.65625,0.6563 1.32292,2 l 2.17708,4.4167 h -4.27083 l -1.89584,-3.8646 q -0.57291,-1.1667 -1.16666,-1.5937 -0.58334,-0.4271 -1.5625,-0.4271 z"
           id="path4168" />
        <path
           d="m 553.60417,3071.281 q -1.83334,0 -2.84375,1.3542 -1.01042,1.3541 -1.01042,3.8125 0,2.4479 1.01042,3.8021 1.01041,1.3541 2.84375,1.3541 1.84375,0 2.85416,-1.3541 1.01042,-1.3542 1.01042,-3.8021 0,-2.4584 -1.01042,-3.8125 -1.01041,-1.3542 -2.85416,-1.3542 z m 0,-2.9063 q 3.75,0 5.875,2.1459 2.125,2.1458 2.125,5.9271 0,3.7708 -2.125,5.9166 -2.125,2.1459 -5.875,2.1459 -3.73959,0 -5.875,-2.1459 -2.125,-2.1458 -2.125,-5.9166 0,-3.7813 2.125,-5.9271 2.13541,-2.1459 5.875,-2.1459 z"
           id="path4170" />
        <path
           d="m 576.95834,3083.3539 q -1.10417,0.5729 -2.30209,0.8646 -1.19792,0.2917 -2.5,0.2917 -3.88542,0 -6.15625,-2.1667 -2.27083,-2.1771 -2.27083,-5.8958 0,-3.7292 2.27083,-5.8959 2.27083,-2.1771 6.15625,-2.1771 1.30208,0 2.5,0.2917 1.19792,0.2917 2.30209,0.8646 v 3.2187 q -1.11459,-0.7604 -2.19792,-1.1145 -1.08334,-0.3542 -2.28125,-0.3542 -2.14584,0 -3.375,1.375 -1.22917,1.375 -1.22917,3.7917 0,2.4062 1.22917,3.7812 1.22916,1.375 3.375,1.375 1.19791,0 2.28125,-0.3541 1.08333,-0.3542 2.19792,-1.1146 z"
           id="path4172" />
        <path
           d="m 580.29167,3068.656 h 4.01042 v 5.6771 l 5.78125,-5.6771 h 4.65625 l -7.48959,7.3646 8.26042,8.1875 h -5.02083 l -6.1875,-6.125 v 6.125 h -4.01042 z"
           id="path4174" />
      </g>
    </g>
    <g
       id="g4125"
       transform="matrix(0.7225,0,0,0.7225,557.78866,4061.9488)">
      <g
         id="g9126"
         transform="rotate(90,1266.3931,1824.012)">
        <g
           id="g8531">
          <path
             id="path8533"
             d="M 734.198,702.65 H 552.546 l 5.858,-68.364 c 0,0 -72.942,-90.241 -62.908,-158.367 13.207,-89.668 12.746,-137.635 12.746,-137.635 0,0 -10.698,-180.96 -11.694,-234.265 -1.213,-64.974 71.382,-74.612 78.656,-10.595 9.64,84.847 23.755,245.798 23.755,245.798 12.621,-31.909 56.473,-205.471 66.309,-245.798 16.993,-69.674 87.576,-48.995 81.072,1.895 -9.88,77.286 -62.929,222.84 -62.929,222.84 0,0 20.917,-23.886 44.928,-15.626 36.764,12.647 27.345,52.736 27.345,52.736 0,0 38.712,-22.05 56.291,28.734 17.58,50.783 7.084,75.99 -2.263,114.419 -17.58,72.269 -73.56,141.724 -73.56,141.724 z"
             style="fill:#f7cfbe" />
          <path
             id="path8535"
             d="M 734.198,702.65 H 552.546 l 5.858,-68.364 c 0,0 -72.942,-90.241 -62.908,-158.367 13.207,-89.668 12.746,-137.635 12.746,-137.635 0,0 -10.698,-180.96 -11.694,-234.265 -1.213,-64.974 71.382,-74.612 78.656,-10.595 9.64,84.847 23.755,245.798 23.755,245.798 12.621,-31.909 56.473,-205.471 66.309,-245.798 16.993,-69.674 87.576,-48.995 81.072,1.895 -9.88,77.286 -62.929,222.84 -62.929,222.84 0,0 20.917,-23.886 44.928,-15.626 36.764,12.647 27.345,52.736 27.345,52.736 0,0 38.712,-22.05 56.291,28.734 17.58,50.783 7.084,75.99 -2.263,114.419 -17.58,72.269 -73.56,141.724 -73.56,141.724 z"
             style="fill-opacity:0;stroke:#e16049;stroke-width:18.69300079;stroke-linecap:round;stroke-linejoin:round" />
        </g>
        <path
           id="path8537"
           d="m 683.411,318.159 c 0,0 -64.457,126.356 -17.577,143.933 46.878,17.578 46.878,-17.577 56.643,-35.159 9.768,-17.578 33.207,-71.664 33.207,-71.664 0,0 -41.792,86.033 -43.401,105.201 -2.383,28.4 32.082,38.591 45.753,26.872 13.674,-11.718 29.299,-50.782 29.299,-50.782 l 13.4,-9.601"
           style="fill-opacity:0;stroke:#e16049;stroke-width:18.69300079;stroke-linecap:round;stroke-linejoin:round" />
        <g
           id="g8539">
          <path
             id="path8541"
             d="m 566.864,529.447 c 0,0 15.307,-29.315 38.233,-33.137 76.467,-12.745 84.021,-101.216 5.096,-89.207 -117.246,17.842 -112.148,73.915 -112.148,73.915"
             style="fill:#f7cfbe" />
          <path
             id="path8543"
             d="m 566.864,529.447 c 0,0 15.307,-29.315 38.233,-33.137 76.467,-12.745 84.021,-101.216 5.096,-89.207 -117.246,17.842 -112.148,73.915 -112.148,73.915"
             style="fill-opacity:0;stroke:#e16049;stroke-width:18.69300079;stroke-linecap:round;stroke-linejoin:round" />
        </g>
      </g>
      <rect
         ry="56.238438"
         y="1515.4974"
         x="2422.5378"
         height="146.21994"
         width="642.38324"
         id="rect9155"
         style="opacity:1;fill:#f7e6be;fill-opacity:1;fill-rule:evenodd;stroke:#e16049;stroke-width:20.60581017;stroke-linecap:round;stroke-linejoin:bevel;stroke-miterlimit:4;stroke-dasharray:none;stroke-opacity:0.95588235" />
      <g
         aria-label="SCISSORS"
         transform="matrix(4.9976357,0,0,4.9976357,-178.87328,-13786.332)"
         style="font-style:normal;font-variant:normal;font-weight:bold;font-stretch:normal;font-size:21.33333397px;line-height:12.3999998%;font-family:sans-serif;-inkscape-font-specification:'sans-serif Bold';font-variant-ligatures:normal;font-variant-caps:normal;font-variant-numeric:normal;font-feature-settings:normal;text-align:start;letter-spacing:-0.76035953px;word-spacing:0px;writing-mode:lr-tb;text-anchor:start;fill:#e3664e;fill-opacity:1;stroke:none;stroke-width:1px;stroke-linecap:butt;stroke-linejoin:miter;stroke-opacity:1"
         id="flowRoot4136">
        <path
           d="m 540.90625,3069.1456 v 3.2916 q -1.28125,-0.5729 -2.5,-0.8645 -1.21875,-0.2917 -2.30208,-0.2917 -1.4375,0 -2.125,0.3958 -0.6875,0.3959 -0.6875,1.2292 0,0.625 0.45833,0.9792 0.46875,0.3437 1.6875,0.5937 l 1.70833,0.3438 q 2.59375,0.5208 3.6875,1.5833 1.09375,1.0625 1.09375,3.0208 0,2.573 -1.53125,3.8334 -1.52083,1.25 -4.65625,1.25 -1.47916,0 -2.96875,-0.2813 -1.48958,-0.2812 -2.97916,-0.8333 v -3.3854 q 1.48958,0.7916 2.875,1.1979 1.39583,0.3958 2.6875,0.3958 1.3125,0 2.01041,-0.4375 0.69792,-0.4375 0.69792,-1.25 0,-0.7291 -0.47917,-1.125 -0.46875,-0.3958 -1.88541,-0.7083 l -1.55209,-0.3438 q -2.33333,-0.5 -3.41666,-1.5937 -1.07292,-1.0938 -1.07292,-2.9479 0,-2.323 1.5,-3.573 1.5,-1.25 4.3125,-1.25 1.28125,0 2.63542,0.198 1.35416,0.1875 2.80208,0.5729 z"
           id="path4151" />
        <path
           d="m 557.03131,3083.3539 q -1.10417,0.5729 -2.30209,0.8646 -1.19791,0.2917 -2.5,0.2917 -3.88541,0 -6.15625,-2.1667 -2.27083,-2.1771 -2.27083,-5.8958 0,-3.7292 2.27083,-5.8959 2.27084,-2.1771 6.15625,-2.1771 1.30209,0 2.5,0.2917 1.19792,0.2917 2.30209,0.8646 v 3.2187 q -1.11459,-0.7604 -2.19792,-1.1145 -1.08333,-0.3542 -2.28125,-0.3542 -2.14583,0 -3.375,1.375 -1.22917,1.375 -1.22917,3.7917 0,2.4062 1.22917,3.7812 1.22917,1.375 3.375,1.375 1.19792,0 2.28125,-0.3541 1.08333,-0.3542 2.19792,-1.1146 z"
           id="path4153" />
        <path
           d="m 559.60428,3068.656 h 4.01042 v 15.5521 h -4.01042 z"
           id="path4155" />
        <path
           d="m 577.62517,3069.1456 v 3.2916 q -1.28125,-0.5729 -2.5,-0.8645 -1.21875,-0.2917 -2.30208,-0.2917 -1.4375,0 -2.125,0.3958 -0.6875,0.3959 -0.6875,1.2292 0,0.625 0.45833,0.9792 0.46875,0.3437 1.6875,0.5937 l 1.70834,0.3438 q 2.59375,0.5208 3.6875,1.5833 1.09375,1.0625 1.09375,3.0208 0,2.573 -1.53125,3.8334 -1.52084,1.25 -4.65625,1.25 -1.47917,0 -2.96875,-0.2813 -1.48959,-0.2812 -2.97917,-0.8333 v -3.3854 q 1.48958,0.7916 2.875,1.1979 1.39583,0.3958 2.6875,0.3958 1.3125,0 2.01042,-0.4375 0.69791,-0.4375 0.69791,-1.25 0,-0.7291 -0.47916,-1.125 -0.46875,-0.3958 -1.88542,-0.7083 l -1.55208,-0.3438 q -2.33334,-0.5 -3.41667,-1.5937 -1.07292,-1.0938 -1.07292,-2.9479 0,-2.323 1.5,-3.573 1.5,-1.25 4.3125,-1.25 1.28125,0 2.63542,0.198 1.35417,0.1875 2.80208,0.5729 z"
           id="path4157" />
        <path
           d="m 591.28148,3069.1456 v 3.2916 q -1.28125,-0.5729 -2.5,-0.8645 -1.21875,-0.2917 -2.30208,-0.2917 -1.4375,0 -2.125,0.3958 -0.6875,0.3959 -0.6875,1.2292 0,0.625 0.45833,0.9792 0.46875,0.3437 1.6875,0.5937 l 1.70833,0.3438 q 2.59375,0.5208 3.6875,1.5833 1.09375,1.0625 1.09375,3.0208 0,2.573 -1.53125,3.8334 -1.52083,1.25 -4.65625,1.25 -1.47916,0 -2.96875,-0.2813 -1.48958,-0.2812 -2.97916,-0.8333 v -3.3854 q 1.48958,0.7916 2.875,1.1979 1.39583,0.3958 2.6875,0.3958 1.3125,0 2.01041,-0.4375 0.69792,-0.4375 0.69792,-1.25 0,-0.7291 -0.47917,-1.125 -0.46875,-0.3958 -1.88541,-0.7083 l -1.55209,-0.3438 q -2.33333,-0.5 -3.41666,-1.5937 -1.07292,-1.0938 -1.07292,-2.9479 0,-2.323 1.5,-3.573 1.5,-1.25 4.3125,-1.25 1.28125,0 2.63542,0.198 1.35416,0.1875 2.80208,0.5729 z"
           id="path4159" />
        <path
           d="m 602.17737,3071.281 q -1.83333,0 -2.84375,1.3542 -1.01042,1.3541 -1.01042,3.8125 0,2.4479 1.01042,3.8021 1.01042,1.3541 2.84375,1.3541 1.84375,0 2.85417,-1.3541 1.01041,-1.3542 1.01041,-3.8021 0,-2.4584 -1.01041,-3.8125 -1.01042,-1.3542 -2.85417,-1.3542 z m 0,-2.9063 q 3.75,0 5.875,2.1459 2.125,2.1458 2.125,5.9271 0,3.7708 -2.125,5.9166 -2.125,2.1459 -5.875,2.1459 -3.73959,0 -5.875,-2.1459 -2.125,-2.1458 -2.125,-5.9166 0,-3.7813 2.125,-5.9271 2.13541,-2.1459 5.875,-2.1459 z"
           id="path4161" />
        <path
           d="m 618.13576,3075.5518 q 1.26041,0 1.80208,-0.4687 0.55208,-0.4688 0.55208,-1.5417 0,-1.0625 -0.55208,-1.5208 -0.54167,-0.4584 -1.80208,-0.4584 h -1.6875 v 3.9896 z m -1.6875,2.7709 v 5.8854 h -4.01042 v -15.5521 h 6.125 q 3.07292,0 4.5,1.0312 1.4375,1.0313 1.4375,3.2605 0,1.5416 -0.75,2.5312 -0.73958,0.9896 -2.23958,1.4583 0.82291,0.1875 1.46875,0.8542 0.65625,0.6563 1.32291,2 l 2.17709,4.4167 h -4.27084 l -1.89583,-3.8646 q -0.57292,-1.1667 -1.16667,-1.5937 -0.58333,-0.4271 -1.5625,-0.4271 z"
           id="path4163" />
        <path
           d="m 638.91707,3069.1456 v 3.2916 q -1.28125,-0.5729 -2.5,-0.8645 -1.21875,-0.2917 -2.30208,-0.2917 -1.4375,0 -2.125,0.3958 -0.6875,0.3959 -0.6875,1.2292 0,0.625 0.45833,0.9792 0.46875,0.3437 1.6875,0.5937 l 1.70833,0.3438 q 2.59375,0.5208 3.6875,1.5833 1.09375,1.0625 1.09375,3.0208 0,2.573 -1.53125,3.8334 -1.52083,1.25 -4.65625,1.25 -1.47916,0 -2.96875,-0.2813 -1.48958,-0.2812 -2.97916,-0.8333 v -3.3854 q 1.48958,0.7916 2.875,1.1979 1.39583,0.3958 2.6875,0.3958 1.3125,0 2.01041,-0.4375 0.69792,-0.4375 0.69792,-1.25 0,-0.7291 -0.47917,-1.125 -0.46875,-0.3958 -1.88541,-0.7083 l -1.55209,-0.3438 q -2.33333,-0.5 -3.41666,-1.5937 -1.07292,-1.0938 -1.07292,-2.9479 0,-2.323 1.5,-3.573 1.5,-1.25 4.3125,-1.25 1.28125,0 2.63542,0.198 1.35416,0.1875 2.80208,0.5729 z"
           id="path4165" />
      </g>
    </g>
    <g
       id="g4065"
       transform="matrix(0.7225,0,0,0.7225,-423.65285,1482.0173)">
      <g
         transform="matrix(0.79289399,0,0,0.79387628,829.25468,973.20881)"
         id="g4010"
         style="stroke-width:1.26042211">
        <path
           style="fill:#f7cfbe;fill-opacity:1;stroke-width:13.40378189"
           d="m 1044.6686,2203.9657 c -4.4266,-0.08 -8.8385,0.8731 -12.9433,3.0957 -76.46105,32.7538 -151.64885,68.7834 -226.04685,105.9824 -13.3993,4.2537 -13.6964,19.6525 -16.8125,31.0313 -18.4505,89.4774 -31.955,179.7741 -44.7695,270.1875 -3.7007,23.0553 2.658,45.9709 5.8164,68.6328 10.2265,67.1381 22.0845,133.9894 33.1757,200.9883 h 195.5274 c -1.9944,-17.3458 -3.4414,-34.7503 -4.0195,-52.2344 -2.0843,-46.5465 -5.7864,-95.5796 13.3554,-139.3613 8.55,-19.2906 19.61025,-39.5914 39.44335,-49.0879 43.3776,-21.8642 79.9065,-54.728 113.6387,-89.1621 30.5206,-29.8187 55.9867,-37.8683 74.2265,-62.1446 15.5703,-36.434 -15.3822,-63.0593 -54.4472,-50.3769 -45.5044,16.515 -88.9749,43.2816 -138.4883,45.2597 -44.55795,0.6912 -78.52405,-42.4189 -79.25775,-84.7011 63.55075,-28.4469 136.90385,-45.4629 204.76165,-21.7696 40.6658,13.6546 89.3529,25.9538 115.0351,28.0801 18.6654,1.5454 38.8482,-20.0674 36.4571,-39.1992 22.4006,-5.879 37.02,-41.8133 -6.7754,-63.6543 -51.8112,-25.8385 -145.1313,-63.4518 -234.8535,-98.4707 -4.158,-1.9035 -8.597,-3.0159 -13.0235,-3.0957 z"
           id="path4207" />
        <path
           id="path4210"
           d="m 1044.6686,2203.9657 c -4.4266,-0.08 -8.8385,0.8731 -12.9433,3.0957 -76.46105,32.7538 -151.64885,68.7834 -226.04685,105.9824 -13.3993,4.2537 -13.6964,19.6525 -16.8125,31.0313 -18.4505,89.4774 -31.955,179.7741 -44.7695,270.1875 -3.7007,23.0553 2.658,45.9709 5.8164,68.6328 10.2265,67.1381 22.0845,133.9894 33.1757,200.9883 h 195.5274 c -1.9944,-17.3458 -3.4414,-34.7503 -4.0195,-52.2344 -2.0843,-46.5465 -5.7864,-95.5796 13.3554,-139.3613 8.55,-19.2906 19.61025,-39.5914 39.44335,-49.0879 43.3776,-21.8642 79.9065,-54.728 113.6387,-89.1621 30.5206,-29.8187 55.9867,-37.8683 74.2265,-62.1446 15.5703,-36.434 -15.3822,-63.0593 -54.4472,-50.3769 -45.5044,16.515 -88.9749,43.2816 -138.4883,45.2597 -44.55795,0.6912 -78.52405,-42.4189 -79.25775,-84.7011 63.55075,-28.4469 136.90385,-45.4629 204.76165,-21.7696 40.6658,13.6546 89.3529,25.9538 115.0351,28.0801 18.6654,1.5454 38.8482,-20.0674 36.4571,-39.1992 22.4006,-5.879 37.02,-41.8133 -6.7754,-63.6543 -51.8112,-25.8385 -145.1313,-63.4518 -234.8535,-98.4707 -4.158,-1.9035 -8.597,-3.0159 -13.0235,-3.0957 z"
           style="opacity:1;vector-effect:none;fill:none;fill-opacity:0;stroke:#e16049;stroke-width:23.5610714;stroke-linecap:round;stroke-linejoin:round;stroke-miterlimit:4;stroke-dasharray:none;stroke-dashoffset:0;stroke-opacity:1" />
        <path
           style="opacity:1;vector-effect:none;fill:none;fill-opacity:0;fill-rule:evenodd;stroke:#e16049;stroke-width:23.5610714;stroke-linecap:round;stroke-linejoin:round;stroke-miterlimit:4;stroke-dasharray:none;stroke-dashoffset:0;stroke-opacity:1"
           d="m 873.20775,2310.9403 c 0,0 0,0 190.37495,-46.6289 3.7989,-0.9304 11.723,-0.018 15.3236,1.3136 67.5705,24.9845 159.5566,58.523 206.25,83.7891 24.7048,13.368 13.8981,39.7052 -0.6486,51.3377 -12.4348,9.9437 -28.9923,7.4059 -28.2868,6.9355"
           id="path4222" />
      </g>
      <g
         transform="translate(1333.5592)"
         id="g4031">
        <rect
           ry="56.238438"
           y="3305.9773"
           x="-14.697108"
           height="146.21994"
           width="642.38324"
           id="rect4016"
           style="opacity:1;fill:#f7e6be;fill-opacity:1;fill-rule:evenodd;stroke:#e16049;stroke-width:20.60581017;stroke-linecap:round;stroke-linejoin:bevel;stroke-miterlimit:4;stroke-dasharray:none;stroke-opacity:0.95588235" />
        <g
           aria-label="LIZARD"
           transform="matrix(4.9976357,0,0,4.9976357,-2553.9491,-11995.799)"
           style="font-style:normal;font-variant:normal;font-weight:bold;font-stretch:normal;font-size:21.33333397px;line-height:12.3999998%;font-family:sans-serif;-inkscape-font-specification:'sans-serif Bold';font-variant-ligatures:normal;font-variant-caps:normal;font-variant-numeric:normal;font-feature-settings:normal;text-align:start;letter-spacing:0px;word-spacing:0px;writing-mode:lr-tb;text-anchor:start;fill:#e3664e;fill-opacity:1;stroke:none;stroke-width:1px;stroke-linecap:butt;stroke-linejoin:miter;stroke-opacity:1"
           id="flowRoot4024">
          <path
             d="m 530.08333,3068.656 h 4.01042 v 12.5208 h 7.04167 v 3.0313 h -11.05209 z"
             id="path4127" />
          <path
             d="m 543.66667,3068.656 h 4.01041 v 15.5521 h -4.01041 z"
             id="path4129" />
          <path
             d="m 550.86458,3068.656 h 13.07292 v 2.4271 l -8.34375,10.0937 h 8.58334 v 3.0313 H 550.625 v -2.4271 l 8.34375,-10.0938 h -8.10417 z"
             id="path4131" />
          <path
             d="M 576.52083,3081.3748 H 570.25 l -0.98958,2.8333 h -4.03125 l 5.76041,-15.5521 h 4.78125 l 5.76042,15.5521 H 577.5 Z m -5.27083,-2.8855 h 4.26042 l -2.125,-6.1875 z"
             id="path4133" />
          <path
             d="m 589.28125,3075.5518 q 1.26042,0 1.80208,-0.4687 0.55209,-0.4688 0.55209,-1.5417 0,-1.0625 -0.55209,-1.5208 -0.54166,-0.4584 -1.80208,-0.4584 h -1.6875 v 3.9896 z m -1.6875,2.7709 v 5.8854 h -4.01042 v -15.5521 h 6.125 q 3.07292,0 4.5,1.0312 1.4375,1.0313 1.4375,3.2605 0,1.5416 -0.75,2.5312 -0.73958,0.9896 -2.23958,1.4583 0.82292,0.1875 1.46875,0.8542 0.65625,0.6563 1.32292,2 l 2.17708,4.4167 h -4.27083 l -1.89584,-3.8646 q -0.57291,-1.1667 -1.16666,-1.5937 -0.58334,-0.4271 -1.5625,-0.4271 z"
             id="path4135" />
          <path
             d="m 604.01042,3071.6872 v 9.4896 h 1.4375 q 2.45834,0 3.75,-1.2187 1.30209,-1.2188 1.30209,-3.5417 0,-2.3125 -1.29167,-3.5208 -1.29167,-1.2084 -3.76042,-1.2084 z m -4.01041,-3.0312 h 4.22916 q 3.54167,0 5.27084,0.5104 1.73958,0.5 2.97916,1.7083 1.09375,1.0521 1.625,2.4271 0.53125,1.375 0.53125,3.1146 0,1.7604 -0.53125,3.1459 -0.53125,1.375 -1.625,2.427 -1.25,1.2084 -3,1.7188 -1.75,0.5 -5.25,0.5 h -4.22916 z"
             id="path4137" />
        </g>
      </g>
    </g>
    <g
       id="g4388">
      <path
         style="color:#000000;font-style:normal;font-variant:normal;font-weight:normal;font-stretch:normal;font-size:medium;line-height:normal;font-family:sans-serif;font-variant-ligatures:normal;font-variant-position:normal;font-variant-caps:normal;font-variant-numeric:normal;font-variant-alternates:normal;font-feature-settings:normal;text-indent:0;text-align:start;text-decoration:none;text-decoration-line:none;text-decoration-style:solid;text-decoration-color:#000000;letter-spacing:normal;word-spacing:normal;text-transform:none;writing-mode:lr-tb;direction:ltr;text-orientation:mixed;dominant-baseline:auto;baseline-shift:baseline;text-anchor:start;white-space:normal;shape-padding:0;clip-rule:nonzero;display:inline;overflow:visible;visibility:visible;opacity:1;isolation:auto;mix-blend-mode:normal;color-interpolation:sRGB;color-interpolation-filters:linearRGB;solid-color:#000000;solid-opacity:1;vector-effect:none;fill:#e16049;fill-opacity:1;fill-rule:evenodd;stroke:none;stroke-width:3.55527925;stroke-linecap:round;stroke-linejoin:miter;stroke-miterlimit:16.39999962;stroke-dasharray:none;stroke-dashoffset:0;stroke-opacity:1;paint-order:markers stroke fill;color-rendering:auto;image-rendering:auto;shape-rendering:auto;text-rendering:auto;enable-background:accumulate"
         d="M 412.33789 225.18945 A 1.7778174 1.7778174 0 0 0 410.69336 227.5293 L 500.26172 508.32812 L 489.51953 511.75391 L 515.18164 549.24609 L 515.07812 543.32227 L 514.39453 503.82031 L 503.65039 507.24609 L 414.08008 226.44922 A 1.7778174 1.7778174 0 0 0 412.33789 225.18945 z "
         transform="matrix(3.7988576,0,0,3.7988576,331.83831,2442.8209)"
         id="path5688" />
    </g>
    <g
       id="g7106"
       transform="matrix(-0.98531799,-0.70858262,0.70861752,-0.98526946,800.19141,9365.0242)"
       style="stroke-width:0.82396877">
      <g
         id="g4404">
        <path
           style="color:#000000;font-style:normal;font-variant:normal;font-weight:normal;font-stretch:normal;font-size:medium;line-height:normal;font-family:sans-serif;font-variant-ligatures:normal;font-variant-position:normal;font-variant-caps:normal;font-variant-numeric:normal;font-variant-alternates:normal;font-feature-settings:normal;text-indent:0;text-align:start;text-decoration:none;text-decoration-line:none;text-decoration-style:solid;text-decoration-color:#000000;letter-spacing:normal;word-spacing:normal;text-transform:none;writing-mode:lr-tb;direction:ltr;text-orientation:mixed;dominant-baseline:auto;baseline-shift:baseline;text-anchor:start;white-space:normal;shape-padding:0;clip-rule:nonzero;display:inline;overflow:visible;visibility:visible;opacity:1;isolation:auto;mix-blend-mode:normal;color-interpolation:sRGB;color-interpolation-filters:linearRGB;solid-color:#000000;solid-opacity:1;vector-effect:none;fill:#e16049;fill-opacity:1;fill-rule:evenodd;stroke:none;stroke-width:3.55527925;stroke-linecap:round;stroke-linejoin:miter;stroke-miterlimit:16.39999962;stroke-dasharray:none;stroke-dashoffset:0;stroke-opacity:1;paint-order:markers stroke fill;color-rendering:auto;image-rendering:auto;shape-rendering:auto;text-rendering:auto;enable-background:accumulate"
           d="M 375.45898 258.61914 L 372.67773 262.63281 L 350.4082 294.75391 L 360.73438 298.11523 L 269.39648 578.67188 C 269.13855 579.42769 269.41689 580.26406 270.07617 580.71484 C 271.06397 581.3898 272.42292 580.91604 272.77734 579.77344 L 364.11328 299.21484 L 374.4375 302.57617 L 375.45898 258.61914 z "
           transform="matrix(-2.5411455,1.8275321,-1.8276221,-2.5412707,3643.5493,4405.3406)"
           id="path7101" />
      </g>
    </g>
    <g
       id="g4380">
      <path
         style="color:#000000;font-style:normal;font-variant:normal;font-weight:normal;font-stretch:normal;font-size:medium;line-height:normal;font-family:sans-serif;font-variant-ligatures:normal;font-variant-position:normal;font-variant-caps:normal;font-variant-numeric:normal;font-variant-alternates:normal;font-feature-settings:normal;text-indent:0;text-align:start;text-decoration:none;text-decoration-line:none;text-decoration-style:solid;text-decoration-color:#000000;letter-spacing:normal;word-spacing:normal;text-transform:none;writing-mode:lr-tb;direction:ltr;text-orientation:mixed;dominant-baseline:auto;baseline-shift:baseline;text-anchor:start;white-space:normal;shape-padding:0;clip-rule:nonzero;display:inline;overflow:visible;visibility:visible;opacity:1;isolation:auto;mix-blend-mode:normal;color-interpolation:sRGB;color-interpolation-filters:linearRGB;solid-color:#000000;solid-opacity:1;vector-effect:none;fill:#e16049;fill-opacity:1;fill-rule:evenodd;stroke:none;stroke-width:3.55527925;stroke-linecap:round;stroke-linejoin:miter;stroke-miterlimit:16.39999962;stroke-dasharray:none;stroke-dashoffset:0;stroke-opacity:1;paint-order:markers stroke fill;color-rendering:auto;image-rendering:auto;shape-rendering:auto;text-rendering:auto;enable-background:accumulate"
         d="M 507.85742 337.77539 L 507.88281 349.05078 L 241.63281 349.61914 A 1.7778174 1.7778174 0 1 0 241.64062 353.17383 L 507.88867 352.60742 L 507.91406 363.88477 L 551.40234 350.73828 L 545.72266 349.04688 L 507.85742 337.77539 z "
         transform="matrix(3.7988576,0,0,3.7988576,331.83831,2442.8209)"
         id="path7110" />
    </g>
    <g
       id="g4412">
      <path
         style="color:#000000;font-style:normal;font-variant:normal;font-weight:normal;font-stretch:normal;font-size:medium;line-height:normal;font-family:sans-serif;font-variant-ligatures:normal;font-variant-position:normal;font-variant-caps:normal;font-variant-numeric:normal;font-variant-alternates:normal;font-feature-settings:normal;text-indent:0;text-align:start;text-decoration:none;text-decoration-line:none;text-decoration-style:solid;text-decoration-color:#000000;letter-spacing:normal;word-spacing:normal;text-transform:none;writing-mode:lr-tb;direction:ltr;text-orientation:mixed;dominant-baseline:auto;baseline-shift:baseline;text-anchor:start;white-space:normal;shape-padding:0;clip-rule:nonzero;display:inline;overflow:visible;visibility:visible;opacity:1;isolation:auto;mix-blend-mode:normal;color-interpolation:sRGB;color-interpolation-filters:linearRGB;solid-color:#000000;solid-opacity:1;vector-effect:none;fill:#e16049;fill-opacity:1;fill-rule:evenodd;stroke:none;stroke-width:3.55527925;stroke-linecap:round;stroke-linejoin:miter;stroke-miterlimit:16.39999962;stroke-dasharray:none;stroke-dashoffset:0;stroke-opacity:1;paint-order:markers stroke fill;color-rendering:auto;image-rendering:auto;shape-rendering:auto;text-rendering:auto;enable-background:accumulate"
         d="M 591.89648 375.99219 A 1.7778174 1.7778174 0 0 0 590.78125 376.33984 L 351.39258 548.29492 L 344.81445 539.13672 L 317.08594 575.12695 L 322.68945 573.19922 L 360.04688 560.34375 L 353.4668 551.18359 L 592.85352 379.22852 A 1.7778174 1.7778174 0 0 0 591.89648 375.99219 z "
         transform="matrix(3.7988576,0,0,3.7988576,331.83831,2442.8209)"
         id="path7112" />
    </g>
    <g
       id="g4396">
      <path
         style="color:#000000;font-style:normal;font-variant:normal;font-weight:normal;font-stretch:normal;font-size:medium;line-height:normal;font-family:sans-serif;font-variant-ligatures:normal;font-variant-position:normal;font-variant-caps:normal;font-variant-numeric:normal;font-variant-alternates:normal;font-feature-settings:normal;text-indent:0;text-align:start;text-decoration:none;text-decoration-line:none;text-decoration-style:solid;text-decoration-color:#000000;letter-spacing:normal;word-spacing:normal;text-transform:none;writing-mode:lr-tb;direction:ltr;text-orientation:mixed;dominant-baseline:auto;baseline-shift:baseline;text-anchor:start;white-space:normal;shape-padding:0;clip-rule:nonzero;display:inline;overflow:visible;visibility:visible;opacity:1;isolation:auto;mix-blend-mode:normal;color-interpolation:sRGB;color-interpolation-filters:linearRGB;solid-color:#000000;solid-opacity:1;vector-effect:none;fill:#e16049;fill-opacity:1;fill-rule:evenodd;stroke:none;stroke-width:3.55527925;stroke-linecap:round;stroke-linejoin:miter;stroke-miterlimit:16.39999962;stroke-dasharray:none;stroke-dashoffset:0;stroke-opacity:1;paint-order:markers stroke fill;color-rendering:auto;image-rendering:auto;shape-rendering:auto;text-rendering:auto;enable-background:accumulate"
         d="M 227.85156 397.97852 L 231.43945 402.69336 L 255.36523 434.13086 L 261.99805 425.00977 L 500.36914 598.37305 A 1.7778174 1.7778174 0 1 0 502.46094 595.49805 L 264.08984 422.13672 L 270.72266 413.01562 L 227.85156 397.97852 z "
         transform="matrix(3.7988576,0,0,3.7988576,331.83831,2442.8209)"
         id="path7622" />
    </g>
    <g
       id="g4420">
      <path
         style="color:#000000;font-style:normal;font-variant:normal;font-weight:normal;font-stretch:normal;font-size:medium;line-height:normal;font-family:sans-serif;font-variant-ligatures:normal;font-variant-position:normal;font-variant-caps:normal;font-variant-numeric:normal;font-variant-alternates:normal;font-feature-settings:normal;text-indent:0;text-align:start;text-decoration:none;text-decoration-line:none;text-decoration-style:solid;text-decoration-color:#000000;letter-spacing:normal;word-spacing:normal;text-transform:none;writing-mode:lr-tb;direction:ltr;text-orientation:mixed;dominant-baseline:auto;baseline-shift:baseline;text-anchor:start;white-space:normal;shape-padding:0;clip-rule:nonzero;display:inline;overflow:visible;visibility:visible;opacity:1;isolation:auto;mix-blend-mode:normal;color-interpolation:sRGB;color-interpolation-filters:linearRGB;solid-color:#000000;solid-opacity:1;vector-effect:none;fill:#e16049;fill-opacity:1;fill-rule:evenodd;stroke:none;stroke-width:3.55527925;stroke-linecap:round;stroke-linejoin:miter;stroke-miterlimit:16.39999962;stroke-dasharray:none;stroke-dashoffset:0;stroke-opacity:1;paint-order:markers stroke fill;color-rendering:auto;image-rendering:auto;shape-rendering:auto;text-rendering:auto;enable-background:accumulate"
         d="M 427.97852 645.12109 L 427.97852 656.39844 L 330.30859 656.39844 A 1.7778174 1.7778174 0 1 0 330.30859 659.95312 L 427.97852 659.95312 L 427.97852 671.23047 L 471.49414 658.17578 L 465.81836 656.47266 L 427.97852 645.12109 z "
         transform="matrix(3.7988576,0,0,3.7988576,331.83831,2442.8209)"
         id="path8783" />
    </g>
    <g
       id="g4436">
      <path
         style="color:#000000;font-style:normal;font-variant:normal;font-weight:normal;font-stretch:normal;font-size:medium;line-height:normal;font-family:sans-serif;font-variant-ligatures:normal;font-variant-position:normal;font-variant-caps:normal;font-variant-numeric:normal;font-variant-alternates:normal;font-feature-settings:normal;text-indent:0;text-align:start;text-decoration:none;text-decoration-line:none;text-decoration-style:solid;text-decoration-color:#000000;letter-spacing:normal;word-spacing:normal;text-transform:none;writing-mode:lr-tb;direction:ltr;text-orientation:mixed;dominant-baseline:auto;baseline-shift:baseline;text-anchor:start;white-space:normal;shape-padding:0;clip-rule:nonzero;display:inline;overflow:visible;visibility:visible;opacity:1;isolation:auto;mix-blend-mode:normal;color-interpolation:sRGB;color-interpolation-filters:linearRGB;solid-color:#000000;solid-opacity:1;vector-effect:none;fill:#e16049;fill-opacity:1;fill-rule:evenodd;stroke:none;stroke-width:3.55527925;stroke-linecap:round;stroke-linejoin:miter;stroke-miterlimit:16.39999962;stroke-dasharray:none;stroke-dashoffset:0;stroke-opacity:1;paint-order:markers stroke fill;color-rendering:auto;image-rendering:auto;shape-rendering:auto;text-rendering:auto;enable-background:accumulate"
         d="M 654.61328 420.61328 L 651.24023 425.48633 L 628.75 457.9668 L 639.47461 461.45117 L 609.29492 554.33984 A 1.7778174 1.7778174 0 1 0 612.67578 555.43945 L 642.85742 462.55078 L 653.58203 466.03516 L 654.61328 420.61328 z "
         transform="matrix(3.7988576,0,0,3.7988576,331.83831,2442.8209)"
         id="path14333" />
    </g>
    <g
       id="g4428">
      <path
         style="color:#000000;font-style:normal;font-variant:normal;font-weight:normal;font-stretch:normal;font-size:medium;line-height:normal;font-family:sans-serif;font-variant-ligatures:normal;font-variant-position:normal;font-variant-caps:normal;font-variant-numeric:normal;font-variant-alternates:normal;font-feature-settings:normal;text-indent:0;text-align:start;text-decoration:none;text-decoration-line:none;text-decoration-style:solid;text-decoration-color:#000000;letter-spacing:normal;word-spacing:normal;text-transform:none;writing-mode:lr-tb;direction:ltr;text-orientation:mixed;dominant-baseline:auto;baseline-shift:baseline;text-anchor:start;white-space:normal;shape-padding:0;clip-rule:nonzero;display:inline;overflow:visible;visibility:visible;opacity:1;isolation:auto;mix-blend-mode:normal;color-interpolation:sRGB;color-interpolation-filters:linearRGB;solid-color:#000000;solid-opacity:1;vector-effect:none;fill:#e16049;fill-opacity:1;fill-rule:evenodd;stroke:none;stroke-width:3.55527925;stroke-linecap:round;stroke-linejoin:miter;stroke-miterlimit:16.39999962;stroke-dasharray:none;stroke-dashoffset:0;stroke-opacity:1;paint-order:markers stroke fill;color-rendering:auto;image-rendering:auto;shape-rendering:auto;text-rendering:auto;enable-background:accumulate"
         d="M 146.29102 420.61523 A 1.7778174 1.7778174 0 0 0 144.66016 422.96484 L 174.8418 515.85156 L 164.11523 519.33789 L 189.97852 556.69141 L 189.84375 550.76758 L 188.94727 511.26953 L 178.22266 514.75391 L 148.04102 421.86523 A 1.7778174 1.7778174 0 0 0 146.29102 420.61523 z "
         transform="matrix(3.7988576,0,0,3.7988576,331.83831,2442.8209)"
         id="path14681" />
    </g>
    <g
       id="g4369">
      <path
         style="color:#000000;font-style:normal;font-variant:normal;font-weight:normal;font-stretch:normal;font-size:medium;line-height:normal;font-family:sans-serif;font-variant-ligatures:normal;font-variant-position:normal;font-variant-caps:normal;font-variant-numeric:normal;font-variant-alternates:normal;font-feature-settings:normal;text-indent:0;text-align:start;text-decoration:none;text-decoration-line:none;text-decoration-style:solid;text-decoration-color:#000000;letter-spacing:normal;word-spacing:normal;text-transform:none;writing-mode:lr-tb;direction:ltr;text-orientation:mixed;dominant-baseline:auto;baseline-shift:baseline;text-anchor:start;white-space:normal;shape-padding:0;clip-rule:nonzero;display:inline;overflow:visible;visibility:visible;opacity:1;isolation:auto;mix-blend-mode:normal;color-interpolation:sRGB;color-interpolation-filters:linearRGB;solid-color:#000000;solid-opacity:1;vector-effect:none;fill:#e16049;fill-opacity:1;fill-rule:evenodd;stroke:none;stroke-width:3.55527925;stroke-linecap:round;stroke-linejoin:miter;stroke-miterlimit:16.39999962;stroke-dasharray:none;stroke-dashoffset:0;stroke-opacity:1;paint-order:markers stroke fill;color-rendering:auto;image-rendering:auto;shape-rendering:auto;text-rendering:auto;enable-background:accumulate"
         d="M 485.4082 173.87109 L 488.99805 178.58594 L 512.93945 210.01172 L 519.56836 200.88867 L 598.58398 258.29688 A 1.7778174 1.7778174 0 1 0 600.67383 255.41992 L 521.6582 198.01172 L 528.28711 188.88867 L 485.4082 173.87109 z "
         transform="matrix(3.7988576,0,0,3.7988576,331.83831,2442.8209)"
         id="path15017" />
    </g>
    <g
       id="g4358">
      <path
         style="color:#000000;font-style:normal;font-variant:normal;font-weight:normal;font-stretch:normal;font-size:medium;line-height:normal;font-family:sans-serif;font-variant-ligatures:normal;font-variant-position:normal;font-variant-caps:normal;font-variant-numeric:normal;font-variant-alternates:normal;font-feature-settings:normal;text-indent:0;text-align:start;text-decoration:none;text-decoration-line:none;text-decoration-style:solid;text-decoration-color:#000000;letter-spacing:normal;word-spacing:normal;text-transform:none;writing-mode:lr-tb;direction:ltr;text-orientation:mixed;dominant-baseline:auto;baseline-shift:baseline;text-anchor:start;white-space:normal;shape-padding:0;clip-rule:nonzero;display:inline;overflow:visible;visibility:visible;opacity:1;isolation:auto;mix-blend-mode:normal;color-interpolation:sRGB;color-interpolation-filters:linearRGB;solid-color:#000000;solid-opacity:1;vector-effect:none;fill:#e16049;fill-opacity:1;fill-rule:evenodd;stroke:none;stroke-width:3.55527925;stroke-linecap:round;stroke-linejoin:miter;stroke-miterlimit:16.39999962;stroke-dasharray:none;stroke-dashoffset:0;stroke-opacity:1;paint-order:markers stroke fill;color-rendering:auto;image-rendering:auto;shape-rendering:auto;text-rendering:auto;enable-background:accumulate"
         d="M 312.9375 173.13867 A 1.7778174 1.7778174 0 0 0 311.82227 173.49219 L 232.80664 230.90039 L 226.17773 221.77734 L 198.64648 257.91797 L 204.23828 255.95898 L 241.52539 242.90039 L 234.89648 233.77734 L 313.91211 176.36914 A 1.7778174 1.7778174 0 0 0 312.9375 173.13867 z "
         transform="matrix(3.7988576,0,0,3.7988576,331.83831,2442.8209)"
         id="path15287" />
    </g>
  </g>
</svg>
